<?xml version="1.0" standalone="no"?>
<!DOCTYPE svg PUBLIC "-//W3C//DTD SVG 20010904//EN"
 "http://www.w3.org/TR/2001/REC-SVG-20010904/DTD/svg10.dtd">
<svg version="1.0" xmlns="http://www.w3.org/2000/svg"
 width="400.000000pt" height="400.000000pt" viewBox="0 0 400.000000 400.000000"
 preserveAspectRatio="xMidYMid meet">
<metadata>
Created by potrace 1.14, written by Peter Selinger 2001-2017
</metadata>
<g transform="translate(0.000000,400.000000) scale(0.100000,-0.100000)"
fill="#000000" stroke="none">
<path d="M1967 3703 c4 -10 15 -33 25 -51 10 -18 24 -64 30 -101 10 -59 9 -78
-6 -135 -10 -36 -21 -66 -25 -66 -3 0 -12 -13 -19 -28 -6 -16 -20 -37 -30 -48
-22 -24 -54 -95 -58 -131 -11 -78 -6 -122 26 -221 12 -36 19 -66 17 -69 -3 -2
-18 8 -34 24 -88 86 -244 174 -275 156 -4 -2 2 -14 15 -27 12 -12 31 -35 42
-50 19 -27 44 -59 65 -83 31 -37 84 -155 95 -212 11 -58 12 -59 73 -53 83 8
255 7 345 -2 74 -7 79 -6 84 13 3 12 8 21 12 21 13 0 42 97 45 146 1 26 -3 68
-9 93 -13 55 -47 131 -57 131 -5 0 -8 6 -8 14 0 19 -67 93 -76 84 -3 -4 -2
-25 4 -47 21 -87 6 -266 -22 -255 -7 3 -40 60 -74 127 -53 105 -62 131 -64
182 -2 68 8 140 24 170 6 11 13 61 14 112 3 87 2 96 -29 155 -34 68 -45 83
-95 134 -37 38 -44 42 -35 17z"/>
<path d="M3000 3560 c-1 -3 -3 -41 -4 -85 -3 -143 -51 -230 -165 -303 -128
-81 -179 -176 -186 -341 -2 -31 -3 -60 -4 -66 -1 -5 -17 22 -37 60 -20 38 -47
85 -60 104 -34 51 -104 121 -120 121 -16 0 -19 -16 -5 -24 5 -3 11 -18 14 -33
3 -16 16 -71 29 -123 22 -88 31 -228 17 -255 -3 -5 -5 -19 -5 -30 1 -18 25
-29 106 -50 37 -10 154 -56 166 -66 8 -6 14 -8 14 -4 0 4 6 3 13 -3 22 -18
125 -72 137 -72 7 0 39 27 71 60 63 65 90 128 94 222 2 41 -14 146 -31 200 -6
21 -29 14 -31 -10 -4 -38 -12 -70 -32 -123 -22 -58 -78 -145 -88 -136 -3 3 -6
21 -8 39 -1 18 -6 60 -10 93 -24 173 1 257 115 393 6 6 23 36 38 65 44 86 39
200 -13 337 -8 19 -15 33 -15 30z"/>
<path d="M900 3464 c0 -3 21 -24 46 -47 111 -101 148 -206 119 -335 -7 -29
-13 -82 -13 -119 0 -100 29 -159 142 -287 15 -16 24 -31 22 -33 -2 -2 -21 3
-42 13 -22 9 -48 18 -59 20 -11 2 -39 8 -62 13 -22 6 -70 11 -105 11 -116 1
-119 -3 -31 -45 32 -16 60 -31 63 -34 3 -3 19 -13 35 -21 30 -15 44 -25 70
-47 7 -7 16 -13 19 -13 10 0 61 -55 95 -103 28 -38 39 -46 55 -41 12 4 23 10
26 13 19 24 350 161 350 144 0 -3 7 0 15 7 8 6 19 9 25 5 6 -4 11 8 12 32 0
21 2 49 2 63 5 96 -64 222 -153 280 -13 8 -29 20 -35 25 -6 6 -30 20 -53 33
-35 19 -43 20 -43 8 0 -8 4 -17 9 -21 14 -8 80 -136 86 -166 2 -10 8 -26 12
-36 9 -18 10 -60 1 -68 -2 -2 -35 20 -73 50 -148 116 -194 179 -214 293 -6 34
-13 72 -15 84 -21 123 -70 194 -176 260 -61 38 -130 71 -130 62z"/>
<path d="M3884 3013 c-37 -119 -100 -211 -165 -245 -44 -23 -160 -58 -153 -47
6 11 -36 -4 -93 -33 -65 -32 -125 -98 -166 -182 -20 -42 -40 -76 -44 -76 -5 0
-9 28 -10 62 -3 74 -25 165 -55 231 -21 45 -37 60 -39 35 0 -7 -2 -26 -4 -43
-2 -16 -6 -55 -9 -85 -8 -72 -14 -105 -31 -161 -13 -46 -42 -109 -54 -119 -3
-3 -12 -15 -18 -27 -10 -18 -10 -24 1 -30 61 -36 296 -268 296 -292 0 -3 9
-12 19 -18 24 -15 112 8 144 38 11 10 27 19 34 19 7 0 13 3 13 8 0 4 14 23 31
42 29 32 46 63 47 83 0 4 8 19 16 33 9 13 15 24 12 24 -2 0 0 17 5 38 27 110
19 152 -18 95 -55 -85 -157 -183 -190 -183 -10 0 -13 8 -9 28 9 49 14 66 41
147 41 126 84 181 190 244 113 67 169 126 196 206 18 57 19 61 24 148 4 74 0
96 -11 60z"/>
<path d="M64 2839 c-3 -5 -2 -9 3 -8 21 5 125 -42 175 -81 51 -39 103 -126
114 -195 11 -73 35 -143 57 -172 40 -51 70 -83 79 -83 5 0 18 -9 30 -19 11
-11 45 -29 74 -41 30 -12 54 -26 54 -31 0 -9 -2 -10 -60 -13 -19 -2 -56 -6
-82 -10 -26 -4 -50 -7 -53 -7 -2 0 -20 -6 -39 -14 -18 -8 -36 -11 -40 -8 -3 4
-6 2 -6 -4 0 -6 -14 -16 -32 -22 -46 -16 -25 -29 57 -35 75 -6 93 -9 170 -28
28 -7 53 -11 56 -11 3 1 39 -17 80 -41 70 -41 75 -43 89 -26 119 139 159 179
298 298 18 16 21 26 17 49 -12 54 -57 133 -97 167 -41 36 -126 81 -169 90
-154 31 -139 29 -139 14 0 -7 19 -25 43 -40 75 -49 145 -125 161 -175 6 -20 5
-21 -31 -12 -21 5 -47 12 -57 14 -97 23 -219 80 -257 122 -28 30 -76 102 -97
143 -15 29 -85 110 -96 110 -4 0 -14 7 -22 15 -20 19 -150 59 -169 51 -8 -3
-15 -2 -15 2 0 10 -89 11 -96 1z"/>
<path d="M1900 2548 c-30 -4 -75 -10 -98 -13 -24 -3 -52 -10 -62 -15 -9 -5
-19 -7 -22 -5 -2 2 -26 -3 -53 -11 -28 -8 -57 -17 -65 -19 -38 -8 -192 -72
-260 -108 -146 -76 -242 -149 -380 -287 -110 -110 -150 -156 -150 -170 0 -5
-4 -10 -10 -10 -5 0 -10 -7 -10 -15 0 -12 22 -15 128 -15 70 0 145 0 167 1 22
1 47 1 55 1 8 -1 71 -1 140 -1 326 0 448 -1 607 -2 95 0 177 2 182 6 6 3 11 3
11 -2 0 -9 1266 -11 1275 -2 9 9 -75 115 -153 194 -74 75 -140 135 -147 135
-3 0 -19 14 -37 30 -17 17 -37 30 -43 30 -7 0 -16 7 -19 16 -4 9 -9 14 -13 10
-4 -3 -16 3 -27 13 -25 23 -216 125 -216 115 0 -3 -6 -1 -14 5 -8 7 -22 13
-32 16 -11 2 -37 11 -58 20 -22 9 -47 19 -55 21 -9 2 -41 10 -71 19 -30 8 -68
17 -85 20 -16 3 -57 11 -90 17 -72 13 -318 17 -395 6z m231 -90 c24 -35 45
-65 48 -68 10 -9 92 -130 89 -131 -12 -5 -361 -3 -369 1 -5 4 21 49 57 101 94
133 114 159 124 159 5 0 28 -28 51 -62z m-281 -249 c0 -4 -19 -33 -43 -65 -62
-86 -75 -104 -105 -152 -15 -23 -33 -41 -41 -40 -8 2 -32 28 -52 58 -21 30
-41 60 -46 65 -41 51 -91 134 -83 137 20 6 370 3 370 -3z m825 -1 c7 -6 -40
-80 -77 -122 -10 -11 -18 -24 -18 -29 0 -5 -9 -18 -21 -28 -11 -9 -19 -19 -17
-21 2 -2 -9 -18 -23 -37 l-26 -33 -92 130 c-50 72 -91 134 -91 139 0 10 355
11 365 1z"/>
<path d="M811 1780 c-4 -8 -7 -337 -7 -730 l1 -715 302 0 301 0 61 64 61 64
-1 266 c-1 259 -2 267 -25 313 l-24 47 25 29 24 29 -1 264 0 264 -60 58 c-33
31 -70 58 -82 59 -11 0 -144 2 -294 2 -236 1 -275 -1 -281 -14z m464 -224 c9
-3 12 -54 11 -179 -1 -97 -3 -178 -6 -181 -12 -11 -221 -11 -228 1 -6 9 -8
323 -3 355 0 4 11 8 24 10 30 4 188 0 202 -6z m10 -781 l0 -190 -118 -3 c-64
-1 -117 1 -118 5 -4 26 -5 360 -1 371 3 9 33 12 121 10 l116 -3 0 -190z"/>
<path d="M1609 1789 c-11 -6 -6 -88 11 -189 5 -30 12 -80 16 -110 3 -30 8 -66
9 -80 10 -70 14 -100 20 -155 4 -33 9 -69 11 -80 2 -11 6 -45 9 -75 3 -30 7
-64 10 -75 2 -11 7 -51 10 -89 4 -38 11 -80 15 -92 5 -12 7 -24 5 -26 -2 -2 0
-35 6 -73 5 -39 12 -88 15 -110 2 -22 7 -58 10 -80 3 -22 7 -56 9 -75 3 -39
14 -105 21 -132 4 -15 19 -17 99 -17 60 0 97 4 103 12 8 11 16 37 27 87 10 48
76 317 81 330 5 13 6 13 14 0 4 -8 29 -105 55 -215 27 -110 53 -203 59 -207 6
-4 52 -7 103 -6 88 0 93 2 94 22 1 11 2 32 4 46 1 14 5 48 8 75 3 28 12 104
21 170 9 66 18 145 21 175 2 30 6 64 9 75 2 11 7 47 10 80 3 33 8 76 11 95 2
19 7 58 10 85 3 28 8 61 10 75 2 14 6 50 9 81 3 31 8 72 10 90 3 19 8 59 11
90 3 31 7 65 9 76 3 11 7 46 10 79 4 32 9 78 12 100 4 34 2 42 -13 46 -25 6
-211 3 -218 -4 -3 -3 -7 -24 -10 -47 -2 -23 -9 -67 -14 -99 -5 -31 -9 -64 -9
-72 0 -8 -2 -24 -5 -35 -3 -11 -8 -45 -11 -75 -4 -30 -10 -73 -13 -95 -3 -22
-7 -58 -8 -81 -1 -23 -7 -49 -13 -60 -9 -16 -12 -12 -22 26 -6 25 -30 108 -52
185 -22 77 -48 174 -59 215 -29 105 -34 111 -49 54 -7 -27 -14 -53 -15 -59 -1
-5 -3 -12 -4 -15 -1 -3 -4 -14 -6 -25 -2 -11 -22 -89 -45 -174 -22 -84 -40
-157 -40 -162 0 -4 -5 -20 -11 -36 -15 -41 -27 -12 -45 107 -2 14 -6 36 -9 50
-4 14 -8 36 -10 50 -7 51 -17 105 -21 112 -2 3 -7 30 -10 60 -3 29 -7 56 -9
59 -2 3 -7 28 -10 55 -4 27 -11 53 -16 59 -10 10 -214 14 -230 4z"/>
<path d="M2747 1771 c-44 -37 -86 -81 -96 -99 -4 -10 -7 -143 -7 -297 l1 -281
25 -31 c14 -18 28 -32 33 -32 4 -1 20 -15 36 -33 l28 -31 169 0 c93 -1 171 -4
174 -8 5 -8 3 -370 -3 -375 -6 -6 -208 -6 -214 0 -4 4 -7 26 -8 49 l0 42 -117
2 c-85 1 -118 -2 -120 -10 -1 -7 -2 -61 -2 -122 l-2 -110 41 -29 c22 -16 48
-37 58 -47 22 -23 2 -21 250 -24 l208 -2 33 26 c47 38 97 75 107 82 12 7 29
66 22 73 -3 3 -6 128 -6 278 0 150 -3 280 -8 288 -4 9 -29 38 -55 65 l-47 50
-175 2 c-96 1 -177 5 -180 8 -4 4 -7 85 -7 181 l0 175 50 -1 c28 -1 55 -1 60
0 17 3 110 -2 114 -6 2 -2 4 -21 5 -43 1 -22 4 -43 8 -47 7 -6 71 -8 200 -5
l37 1 -1 113 c-2 118 1 112 -55 157 -81 67 -68 65 -307 65 -218 0 -220 0 -249
-24z"/>
</g>
</svg>
